<?xml version="1.0" encoding="UTF-8" standalone="no"?>
<!-- Created with Inkscape (http://www.inkscape.org/) -->

<svg
   xmlns:dc="http://purl.org/dc/elements/1.1/"
   xmlns:cc="http://creativecommons.org/ns#"
   xmlns:rdf="http://www.w3.org/1999/02/22-rdf-syntax-ns#"
   xmlns:svg="http://www.w3.org/2000/svg"
   xmlns="http://www.w3.org/2000/svg"
   xmlns:sodipodi="http://sodipodi.sourceforge.net/DTD/sodipodi-0.dtd"
   xmlns:inkscape="http://www.inkscape.org/namespaces/inkscape"
   id="svg2"
   version="1.1"
   inkscape:version="0.47 r22583"
   width="640.35999"
   height="165.62"
   xml:space="preserve"
   sodipodi:docname="NCAS_national_centre_logo.svg"><metadata
     id="metadata8"><rdf:RDF><cc:Work
         rdf:about=""><dc:format>image/svg+xml</dc:format><dc:type
           rdf:resource="http://purl.org/dc/dcmitype/StillImage" /><dc:title /></cc:Work></rdf:RDF></metadata><defs
     id="defs6"><inkscape:perspective
       sodipodi:type="inkscape:persp3d"
       inkscape:vp_x="0 : 0.5 : 1"
       inkscape:vp_y="0 : 1000 : 0"
       inkscape:vp_z="1 : 0.5 : 1"
       inkscape:persp3d-origin="0.5 : 0.33333333 : 1"
       id="perspective10" /><clipPath
       clipPathUnits="userSpaceOnUse"
       id="clipPath20"><path
         d="m 0,6.30078 5950,0 L 5950,2806.3 0,2806.3 0,6.30078 z"
         id="path22" /></clipPath><clipPath
       clipPathUnits="userSpaceOnUse"
       id="clipPath32"><path
         d="m 440,919.359 4962.89,0 0,1156.941 -4962.89,0 0,-1156.941 z"
         id="path34" /></clipPath></defs><sodipodi:namedview
     pagecolor="#ffffff"
     bordercolor="#666666"
     borderopacity="1"
     objecttolerance="10"
     gridtolerance="10"
     guidetolerance="10"
     inkscape:pageopacity="0"
     inkscape:pageshadow="2"
     inkscape:window-width="1080"
     inkscape:window-height="1868"
     id="namedview4"
     showgrid="false"
     inkscape:zoom="0.9123064"
     inkscape:cx="338.0581"
     inkscape:cy="70.04973"
     inkscape:window-x="-4"
     inkscape:window-y="27"
     inkscape:window-maximized="1"
     inkscape:current-layer="g12" /><g
     id="g12"
     inkscape:groupmode="layer"
     inkscape:label="ink_ext_XXXXXX"
     transform="matrix(1.25,0,0,-1.25,-55,280.53987)"><g
       id="g3663"><rect
         transform="matrix(0.8,0,0,-0.8,44,224.4319)"
         y="3.3937957"
         x="4.3844919"
         height="157.84171"
         width="631.36682"
         id="rect2889"
         style="fill:#ffffff;fill-opacity:1;stroke:none" /><g
         transform="matrix(0.1,0,0,0.1,7.9994941,8.400948)"
         clip-path="url(#clipPath32)"
         id="g30"><path
           id="path36"
           style="fill:#004d1f;fill-opacity:1;fill-rule:nonzero;stroke:none"
           d="m 596.828,1497.83 c 0,-232.78 188.59,-421.59 421.842,-421.59 232.76,0 421.35,188.81 421.35,421.59 0,218.2 -157.32,384.57 -339.95,384.57 -96.28,0 -228.797,-61.2 -281.898,-186.73 -4.465,-10.19 -7.942,-20.83 -10.918,-31.82 -7.942,-26.61 -12.406,-55.53 -12.406,-87 0,-139.99 100.25,-253.72 223.822,-253.72 107.7,0 195.04,87.24 195.04,195.18 0,107.94 -87.34,195.4 -195.04,195.4 -17.87,0 -34.736,-2.31 -51.115,-6.71 36.725,39.92 92.305,58.78 139.955,58.78 109.68,0 240.2,-86.19 240.2,-267.95 0,-181.76 -147.39,-329.15 -329.04,-329.15 -182.135,0 -396.533,154.22 -396.533,419.39 0,20.48 2.484,36.56 7.445,49.98 -20.844,-41.76 -32.754,-88.62 -32.754,-140.22 z m -156.828,0 c 0,319.43 259.062,578.47 578.67,578.47 319.12,0 578.18,-259.04 578.18,-578.47 0,-319.43 -259.06,-578.471 -578.18,-578.471 C 699.062,919.359 440,1178.4 440,1497.83" /><path
           id="path38"
           style="fill:#000000;fill-opacity:1;fill-rule:nonzero;stroke:none"
           d="m 5402.89,1064.32 0,-17.35 -71.96,0 0,94.41 23.32,0 0,-77.06" /><path
           id="path40"
           style="fill:#000000;fill-opacity:1;fill-rule:nonzero;stroke:none"
           d="m 5280.31,1046.97 23.3242,0 0,94.293 -23.3242,0 0,-94.293 z" /><path
           id="path42"
           style="fill:#000000;fill-opacity:1;fill-rule:nonzero;stroke:none"
           d="m 5220.75,1065.37 c 12.41,0 20.85,3.93 34.25,10.41 l 0,-20.6 c -12.91,-6.71 -22.83,-9.37 -36.73,-9.37 -36.72,0 -55.09,23.84 -55.09,48.13 0,25.22 20.85,48.71 56.58,48.71 13.4,0 24.81,-2.78 34.24,-8.33 l 0,-21.06 c -10.42,5.9 -20.84,9.72 -32.25,9.72 -20.35,0 -34.25,-11.91 -34.25,-28.69 0,-16.77 13.9,-28.92 33.25,-28.92" /><path
           id="path44"
           style="fill:#000000;fill-opacity:1;fill-rule:nonzero;stroke:none"
           d="m 5066.9,1141.38 50.13,-57.62 0,57.62 23.32,0 0,-94.41 -19.35,0 -52.61,60.51 0,-60.51 -23.32,0 0,94.41" /><path
           id="path46"
           style="fill:#000000;fill-opacity:1;fill-rule:nonzero;stroke:none"
           d="m 5019.26,1141.38 0,-53.57 c 0,-31.24 -21.34,-42 -47.15,-42 -27.29,0 -47.15,12.73 -47.15,41.89 l 0,53.68 23.33,0 0,-54.26 c 0,-13.54 9.92,-21.75 23.33,-21.75 12.4,0 23.82,6.59 23.82,23.48 l 0,52.53" /><path
           id="path48"
           style="fill:#000000;fill-opacity:1;fill-rule:nonzero;stroke:none"
           d="m 4849.03,1045.81 c -34.24,0 -54.09,24.3 -54.09,48.36 0,22.79 18.86,48.48 54.09,48.48 35.74,0 54.1,-25.69 54.1,-48.48 0,-24.18 -20.35,-48.36 -54.1,-48.36 z m 29.78,48.36 c 0,17.36 -11.91,28.81 -29.78,28.81 -17.87,0 -29.78,-11.45 -29.78,-28.81 0,-17.24 11.91,-28.8 29.78,-28.8 17.87,0 29.78,11.56 29.78,28.8" /><path
           id="path50"
           style="fill:#000000;fill-opacity:1;fill-rule:nonzero;stroke:none"
           d="m 4778.06,1075.78 0,-20.6 c -12.9,-6.71 -22.83,-9.37 -36.72,-9.37 -36.73,0 -55.09,23.84 -55.09,48.13 0,25.22 20.84,48.71 57.07,48.71 12.91,0 24.82,-2.78 33.75,-8.33 l 0,-21.06 c -10.42,5.9 -20.84,9.72 -32.26,9.72 -20.35,0 -34.24,-11.91 -34.24,-28.69 0,-16.77 13.89,-28.92 33.75,-28.92 12.4,0 20.34,3.93 33.74,10.41" /><path
           id="path52"
           style="fill:#000000;fill-opacity:1;fill-rule:nonzero;stroke:none"
           d="m 4619.75,1141.38 0,-94.41 -23.33,0 0,38.3 -47.15,0 0,-38.3 -23.32,0 0,94.41 23.32,0 0,-37.95 47.15,0 0,37.95" /><path
           id="path54"
           style="fill:#000000;fill-opacity:1;fill-rule:nonzero;stroke:none"
           d="m 4467.39,1065.37 c 12.4,0 20.34,3.93 34.24,10.41 l 0,-20.6 c -13.4,-6.71 -23.33,-9.37 -37.22,-9.37 -36.73,0 -55.09,23.84 -55.09,48.13 0,25.22 20.84,48.71 57.07,48.71 12.91,0 24.82,-2.78 34.25,-8.33 l 0,-21.06 c -10.43,5.9 -21.34,9.72 -32.76,9.72 -19.85,0 -34.24,-11.91 -34.24,-28.69 0,-16.77 13.9,-28.92 33.75,-28.92" /><path
           id="path56"
           style="fill:#000000;fill-opacity:1;fill-rule:nonzero;stroke:none"
           d="m 4387.48,1114.19 c 0,-10.3 -5.46,-18.05 -16.37,-23.03 9.92,-4.86 12.9,-16.42 25.8,-44.19 l -25.8,0 c -9.93,20.25 -13.9,38.3 -26.31,38.3 l -6.94,0 0,-38.3 -23.83,0 0,94.41 42.68,0 c 19.36,0 30.77,-13.08 30.77,-27.19 z m -24.32,-0.81 c 0,7.17 -4.46,10.76 -13.39,10.76 l -11.91,0 0,-21.52 12.4,0 c 6.45,0 12.9,2.77 12.9,10.76" /><path
           id="path58"
           style="fill:#000000;fill-opacity:1;fill-rule:nonzero;stroke:none"
           d="m 4255.96,1141.38 41.7,-94.41 -25.32,0 -7.44,18.74 -42.19,0 -6.94,-18.74 -25.31,0 38.21,94.41 27.29,0 z m 1.99,-59.12 -15.38,36.56 -13.9,-36.56" /><path
           id="path60"
           style="fill:#000000;fill-opacity:1;fill-rule:nonzero;stroke:none"
           d="m 4131.4,1064.32 45.66,0 0,-17.35 -69.48,0 0,94.41 68.48,0 0,-17.24 -44.66,0 0,-19.78 42.68,0 0,-17.36 -42.68,0" /><path
           id="path62"
           style="fill:#000000;fill-opacity:1;fill-rule:nonzero;stroke:none"
           d="m 4082.76,1074.39 c 0,-18.05 -15.38,-28.58 -36.72,-28.58 -16.38,0 -24.32,4.28 -33.75,9.14 l 0,20.25 c 13.4,-8.91 21.83,-12.03 32.26,-12.03 8.93,0 13.89,3.12 13.89,8.67 0,15.51 -48.14,9.72 -48.14,43.62 0,16.31 14.4,27.19 35.74,27.19 10.91,0 20.34,-2.2 32.25,-7.29 l 0,-18.4 c -13.89,6.02 -21.83,8.34 -29.77,8.34 -8.44,0 -13.9,-3.01 -13.9,-7.64 0,-14.35 48.14,-10.3 48.14,-43.27" /><path
           id="path64"
           style="fill:#000000;fill-opacity:1;fill-rule:nonzero;stroke:none"
           d="m 3943.8,1064.32 46.16,0 0,-17.35 -69.48,0 0,94.41 68.48,0 0,-17.24 -45.16,0 0,-19.78 43.18,0 0,-17.36 -43.18,0" /><path
           id="path66"
           style="fill:#000000;fill-opacity:1;fill-rule:nonzero;stroke:none"
           d="m 3874.32,1091.16 c 9.93,-4.86 12.9,-16.42 25.81,-44.19 l -25.81,0 c -9.93,20.25 -13.89,38.3 -26.3,38.3 l -6.95,0 0,-38.3 -23.33,0 0,94.41 42.19,0 c 19.35,0 30.77,-13.08 30.77,-27.19 0,-10.3 -5.46,-18.05 -16.38,-23.03 z m -7.94,22.22 c 0,7.17 -4.47,10.76 -13.4,10.76 l -11.91,0 0,-21.52 12.41,0 c 6.45,0 12.9,2.77 12.9,10.76" /><path
           id="path68"
           style="fill:#000000;fill-opacity:1;fill-rule:nonzero;stroke:none"
           d="m 3725.43,1124.14 0,-77.17 -23.82,0 0,77.17 -34.24,0 0,17.24 91.81,0 0,-17.24" /><path
           id="path70"
           style="fill:#000000;fill-opacity:1;fill-rule:nonzero;stroke:none"
           d="m 3573.57,1141.38 50.62,-57.62 0,57.62 23.33,0 0,-94.41 -19.86,0 -52.11,60.51 0,-60.51 -23.32,0 0,94.41" /><path
           id="path72"
           style="fill:#000000;fill-opacity:1;fill-rule:nonzero;stroke:none"
           d="m 3478.78,1064.32 46.15,0 0,-17.35 -69.48,0 0,94.41 68.49,0 0,-17.24 -45.16,0 0,-19.78 43.17,0 0,-17.36 -43.17,0" /><path
           id="path74"
           style="fill:#000000;fill-opacity:1;fill-rule:nonzero;stroke:none"
           d="m 3374.56,1106.44 30.27,34.94 20.35,0 0,-94.41 -23.33,0 0,59 -25.8,-29.61 -3.48,0 -25.31,29.61 0,-59 -23.33,0 0,94.41 20.36,0" /><path
           id="path76"
           style="fill:#000000;fill-opacity:1;fill-rule:nonzero;stroke:none"
           d="m 3219.71,1141.38 50.13,-57.62 0,57.62 23.82,0 0,-94.41 -19.85,0 -52.11,60.51 0,-60.51 -23.32,0 0,94.41" /><path
           id="path78"
           style="fill:#000000;fill-opacity:1;fill-rule:nonzero;stroke:none"
           d="m 3121.45,1142.65 c 35.73,0 54.1,-25.69 54.1,-48.48 0,-24.18 -20.35,-48.36 -54.1,-48.36 -34.74,0 -54.09,24.3 -54.09,48.36 0,22.79 18.85,48.48 54.09,48.48 z m 29.78,-48.48 c 0,17.36 -11.91,28.81 -29.78,28.81 -17.87,0 -29.78,-11.45 -29.78,-28.81 0,-17.24 11.91,-28.8 29.78,-28.8 17.87,0 29.78,11.56 29.78,28.8" /><path
           id="path80"
           style="fill:#000000;fill-opacity:1;fill-rule:nonzero;stroke:none"
           d="m 3044.03,1114.19 c 0,-10.3 -5.46,-18.05 -16.38,-23.03 9.93,-4.86 12.41,-16.42 25.81,-44.19 l -25.81,0 c -9.92,20.25 -13.9,38.3 -26.3,38.3 l -6.95,0 0,-38.3 -23.33,0 0,94.41 42.19,0 c 19.35,0 30.77,-13.08 30.77,-27.19 z m -24.32,-0.81 c 0,7.17 -4.47,10.76 -13.4,10.76 l -11.91,0 0,-21.52 12.41,0 c 6.45,0 12.9,2.77 12.9,10.76" /><path
           id="path82"
           style="fill:#000000;fill-opacity:1;fill-rule:nonzero;stroke:none"
           d="m 2916.48,1046.97 23.3281,0 0,94.293 -23.3281,0 0,-94.293 z" /><path
           id="path84"
           style="fill:#000000;fill-opacity:1;fill-rule:nonzero;stroke:none"
           d="m 2899.61,1141.38 -43.18,-95.57 -10.42,0 -45.66,95.57 25.81,0 24.81,-53.92 23.33,53.92" /><path
           id="path86"
           style="fill:#000000;fill-opacity:1;fill-rule:nonzero;stroke:none"
           d="m 2710.52,1141.38 50.13,-57.62 0,57.62 23.32,0 0,-94.41 -19.35,0 -52.11,60.51 0,-60.51 -23.82,0 0,94.41" /><path
           id="path88"
           style="fill:#000000;fill-opacity:1;fill-rule:nonzero;stroke:none"
           d="m 2617.71,1064.32 46.16,0 0,-17.35 -69.48,0 0,94.41 68.49,0 0,-17.24 -45.17,0 0,-19.78 43.18,0 0,-17.36 -43.18,0" /><path
           id="path90"
           style="fill:#000000;fill-opacity:1;fill-rule:nonzero;stroke:none"
           d="m 2535.33,1064.32 0,-17.35 -71.96,0 0,94.41 23.82,0 0,-77.06" /><path
           id="path92"
           style="fill:#000000;fill-opacity:1;fill-rule:nonzero;stroke:none"
           d="m 2401.83,1141.38 41.69,-94.41 -25.31,0 -7.94,18.74 -41.69,0 -7.44,-18.74 -24.82,0 38.22,94.41 27.29,0 z m 1.99,-59.12 -15.39,36.56 -13.89,-36.56" /><path
           id="path94"
           style="fill:#000000;fill-opacity:1;fill-rule:nonzero;stroke:none"
           d="m 2284.71,1141.38 c 19.35,0 30.77,-13.08 30.77,-27.19 0,-10.3 -5.46,-18.05 -16.38,-23.03 9.92,-4.86 12.9,-16.42 26.3,-44.19 l -26.3,0 c -9.93,20.25 -13.4,38.3 -26.3,38.3 l -6.95,0 0,-38.3 -23.33,0 0,94.41 42.19,0 z m 6.45,-28 c 0,7.17 -4.47,10.76 -13.4,10.76 l -11.91,0 0,-21.52 12.4,0 c 6.95,0 12.91,2.77 12.91,10.76" /><path
           id="path96"
           style="fill:#000000;fill-opacity:1;fill-rule:nonzero;stroke:none"
           d="m 2216.71,1141.38 0,-53.57 c 0,-31.24 -21.33,-42 -47.14,-42 -27.3,0 -47.15,12.73 -47.15,41.89 l 0,53.68 23.33,0 0,-54.26 c 0,-13.54 9.92,-21.75 23.32,-21.75 12.41,0 23.82,6.59 23.82,23.48 l 0,52.53" /><path
           id="path98"
           style="fill:#000000;fill-opacity:1;fill-rule:nonzero;stroke:none"
           d="m 2069.32,1124.14 0,-77.17 -23.82,0 0,77.17 -33.75,0 0,17.24 91.81,0 0,-17.24" /><path
           id="path100"
           style="fill:#000000;fill-opacity:1;fill-rule:nonzero;stroke:none"
           d="m 1966.59,1141.38 42.18,-94.41 -25.31,0 -7.94,18.74 -42.19,0 -6.94,-18.74 -24.82,0 37.72,94.41 27.3,0 z m 1.98,-59.12 -14.89,36.56 -13.89,-36.56" /><path
           id="path102"
           style="fill:#000000;fill-opacity:1;fill-rule:nonzero;stroke:none"
           d="m 1807.77,1141.38 50.13,-57.62 0,57.62 23.32,0 0,-94.41 -19.85,0 -52.11,60.51 0,-60.51 -23.32,0 0,94.41" /><path
           id="path104"
           style="fill:#000000;fill-opacity:1;fill-rule:nonzero;stroke:none"
           d="m 5016.78,1417.07 71.96,0 c -1.99,22.68 -15.88,36.33 -35.73,36.33 -20.85,0 -33.75,-13.42 -36.23,-36.33 z m 32.26,67.22 c 48.63,0 88.34,-34.13 85.85,-94.63 l -119.1,0 c 1.98,-29.51 21.83,-46.86 54.59,-46.86 20.84,0 37.22,6.13 61.54,23.83 l 0,-32.85 c -29.78,-21.87 -61.05,-21.87 -73.95,-21.87 -58.56,0 -96.28,33.78 -96.28,85.73 0,50.67 36.72,86.65 87.35,86.65" /><path
           id="path106"
           style="fill:#000000;fill-opacity:1;fill-rule:nonzero;stroke:none"
           d="m 4947.3,1360.5 0,-37.48 c -21.34,-7.52 -38.71,-11.11 -56.58,-11.11 -58.06,0 -95.78,33.78 -95.78,85.73 0,50.67 39.2,86.65 93.79,86.65 16.88,0 38.72,-4.28 55.59,-10.75 l 0,-38.88 c -13.4,7.18 -29.28,11.11 -42.18,11.11 -31.27,0 -51.62,-18.63 -51.62,-47.9 0,-29.5 19.85,-48.94 49.63,-48.94 12.9,0 23.82,2.89 47.15,11.57" /><path
           id="path108"
           style="fill:#000000;fill-opacity:1;fill-rule:nonzero;stroke:none"
           d="m 4886.75,1779.2 -14.39,-46.05 c -13.9,8.68 -22.83,12.26 -31.27,12.26 -18.86,0 -31.27,-18.04 -42.68,-48.59 l 0,-71.73 -52.11,0 0,166.02 52.11,0 0,-47.55 0.5,0 c 15.88,34.6 32.75,50.8 53.1,50.8 10.42,0 19.35,-3.94 34.74,-15.16" /><path
           id="path110"
           style="fill:#000000;fill-opacity:1;fill-rule:nonzero;stroke:none"
           d="m 4770.62,1420.66 0,-105.51 -52.11,0 0,101.12 c 0,23.48 -11.42,33.2 -25.81,33.2 -12.9,0 -22.83,-6.83 -36.72,-27.42 l 0,-106.9 -52.12,0 0,166.02 52.12,0 0,-23.83 c 16.87,19.09 33.25,26.95 54.09,26.95 25.81,0 60.55,-14.69 60.55,-63.63" /><path
           id="path112"
           style="fill:#000000;fill-opacity:1;fill-rule:nonzero;stroke:none"
           d="m 4665.9,1709.32 c 0,32.51 -11.41,54.14 -37.22,54.14 -22.83,0 -38.22,-17.7 -38.22,-55.18 0,-42.81 18.37,-55.42 38.22,-55.42 24.32,0 37.22,20.13 37.22,56.46 z m -37.22,85.04 c 40.2,0 92.8,-22.8 92.8,-86.43 0,-65.95 -56.07,-85.96 -92.8,-85.96 -54.59,0 -94.3,34.13 -94.3,86.31 0,56.57 45.17,86.08 94.3,86.08" /><path
           id="path114"
           style="fill:#000000;fill-opacity:1;fill-rule:nonzero;stroke:none"
           d="m 4463.91,1417.07 71.97,0 c -1.99,22.68 -15.89,36.33 -35.74,36.33 -20.84,0 -34.24,-13.42 -36.23,-36.33 z m 32.26,67.22 c 48.63,0 88.34,-34.13 85.86,-94.63 l -119.11,0 c 1.98,-29.51 21.83,-46.86 54.59,-46.86 20.85,0 37.22,6.13 61.54,23.83 l 0,-32.85 c -29.78,-21.87 -61.04,-21.87 -73.94,-21.87 -58.57,0 -96.29,33.78 -96.29,85.73 0,50.67 36.23,86.65 87.35,86.65" /><path
           id="path116"
           style="fill:#000000;fill-opacity:1;fill-rule:nonzero;stroke:none"
           d="m 4561.68,1870.6 0,-42.12 c -13.89,1.86 -17.87,2.2 -23.82,2.2 -15.88,0 -28.79,-7.17 -28.79,-29.15 l 0,-10.42 23.82,0 0,-35.75 -23.82,0 0,-130.27 -52.11,0 0,130.27 -23.82,0 0,35.75 23.82,0 0,8.22 c 0,48.94 30.77,74.62 72.96,74.62 9.92,0 23.82,-2.2 31.76,-3.35" /><path
           id="path118"
           style="fill:#000000;fill-opacity:1;fill-rule:nonzero;stroke:none"
           d="m 4332.39,1315.15 52.1094,0 0,166.023 -52.1094,0 0,-166.023 z" /><path
           id="path120"
           style="fill:#000000;fill-opacity:1;fill-rule:nonzero;stroke:none"
           d="m 4358.7,1563.89 c 15.38,0 28.78,-12.96 28.78,-28.81 0,-15.85 -13.4,-28.8 -28.78,-28.8 -15.88,0 -28.79,12.95 -28.79,28.8 0,15.85 12.91,28.81 28.79,28.81" /><path
           id="path122"
           style="fill:#000000;fill-opacity:1;fill-rule:nonzero;stroke:none"
           d="m 4221.23,1727.02 71.96,0 c -1.99,22.68 -15.88,36.44 -35.73,36.44 -20.85,0 -33.75,-13.42 -36.23,-36.44 z m 32.25,67.34 c 48.64,0 88.34,-34.25 85.86,-94.76 l -119.11,0 c 1.99,-29.5 21.84,-46.74 54.59,-46.74 20.85,0 37.23,6.02 61.55,23.72 l 0,-32.74 c -29.78,-21.87 -61.05,-21.87 -73.95,-21.87 -58.56,0 -96.28,33.78 -96.28,85.61 0,50.79 36.23,86.78 87.34,86.78" /><path
           id="path124"
           style="fill:#000000;fill-opacity:1;fill-rule:nonzero;stroke:none"
           d="m 4308.57,1360.5 0,-37.48 c -20.84,-7.52 -38.71,-11.11 -56.08,-11.11 -58.56,0 -96.28,33.78 -96.28,85.73 0,50.67 39.21,86.65 93.8,86.65 16.88,0 38.71,-4.28 56.08,-10.75 l 0,-38.88 c -13.89,7.18 -29.78,11.11 -42.68,11.11 -31.27,0 -51.61,-18.63 -51.61,-47.9 0,-29.5 19.85,-48.94 49.63,-48.94 12.9,0 23.82,2.89 47.14,11.57" /><path
           id="path126"
           style="fill:#000000;fill-opacity:1;fill-rule:nonzero;stroke:none"
           d="m 4174.08,1779.2 -14.39,-46.05 c -13.4,8.68 -22.83,12.26 -30.77,12.26 -19.36,0 -31.27,-18.04 -43.18,-48.59 l 0,-71.73 -52.11,0 0,166.02 52.11,0 0,-47.55 0.99,0 c 15.39,34.6 32.76,50.8 52.61,50.8 10.42,0 19.85,-3.94 34.74,-15.16" /><path
           id="path128"
           style="fill:#000000;fill-opacity:1;fill-rule:nonzero;stroke:none"
           d="m 4128.42,1544.8 0,-47.89 c -35.73,15.84 -57.07,21.98 -77.92,21.98 -21.84,0 -35.73,-7.99 -35.73,-20.14 0,-37.13 124.57,-26.61 124.57,-112.33 0,-47.21 -39.21,-74.51 -94.3,-74.51 -42.68,0 -64.02,11.11 -88.34,23.72 l 0,52.87 c 35.24,-23.37 57.08,-31.59 83.88,-31.59 23.32,0 36.22,8.22 36.22,22.68 0,40.38 -125.06,25.57 -125.06,113.73 0,42.46 36.72,70.57 93.3,70.57 27.3,0 52.61,-5.78 83.38,-19.09" /><path
           id="path130"
           style="fill:#000000;fill-opacity:1;fill-rule:nonzero;stroke:none"
           d="m 4017.25,1670.1 0,-37.83 c -18.36,-7.52 -32.26,-10.3 -48.14,-10.3 -34.74,0 -64.52,15.73 -64.52,62.24 l 0,71.15 -23.82,0 0,10.19 69.48,77.74 6.45,0 0,-52.18 60.55,0 0,-35.75 -60.55,0 0,-68.37 c 0,-16.2 9.43,-26.61 25.81,-26.61 10.42,0 20.85,2.55 34.74,9.72" /><path
           id="path132"
           style="fill:#000000;fill-opacity:1;fill-rule:nonzero;stroke:none"
           d="m 3866.88,1730.61 0,-105.52 -52.61,0 0,101.23 c 0,23.38 -10.92,33.09 -25.81,33.09 -12.9,0 -22.83,-6.82 -36.23,-27.41 l 0,-106.91 -52.11,0 0,166.02 52.11,0 0,-23.83 c 16.38,19.09 32.76,27.08 54.1,27.08 25.81,0 60.55,-14.7 60.55,-63.75" /><path
           id="path134"
           style="fill:#000000;fill-opacity:1;fill-rule:nonzero;stroke:none"
           d="m 3846.53,1360.5 0,-37.48 c -20.85,-7.52 -38.71,-11.11 -56.08,-11.11 -58.56,0 -96.28,33.78 -96.28,85.73 0,50.67 39.21,86.65 93.79,86.65 17.38,0 38.72,-4.28 56.09,-10.75 l 0,-38.88 c -13.9,7.18 -29.78,11.11 -42.68,11.11 -31.27,0 -51.12,-18.63 -51.12,-47.9 0,-29.5 19.85,-48.94 49.63,-48.94 12.41,0 23.82,2.89 46.65,11.57" /><path
           id="path136"
           style="fill:#000000;fill-opacity:1;fill-rule:nonzero;stroke:none"
           d="m 3560.17,1727.02 71.96,0 c -2.48,22.68 -15.88,36.44 -36.23,36.44 -20.35,0 -33.74,-13.42 -35.73,-36.44 z m 32.26,67.34 c 48.14,0 88.34,-34.25 85.86,-94.76 l -119.61,0 c 1.98,-29.5 22.33,-46.74 55.09,-46.74 20.84,0 36.72,6.02 61.54,23.72 l 0,-32.74 c -29.78,-21.87 -61.54,-21.87 -74.45,-21.87 -58.06,0 -95.78,33.78 -95.78,85.61 0,50.79 36.23,86.78 87.35,86.78" /><path
           id="path138"
           style="fill:#000000;fill-opacity:1;fill-rule:nonzero;stroke:none"
           d="m 3616.75,1315.15 52.1094,0 0,166.023 -52.1094,0 0,-166.023 z" /><path
           id="path140"
           style="fill:#000000;fill-opacity:1;fill-rule:nonzero;stroke:none"
           d="m 3642.55,1563.89 c 15.88,0 29.29,-12.96 29.29,-28.81 0,-15.85 -13.41,-28.8 -29.29,-28.8 -15.38,0 -28.78,12.95 -28.78,28.8 0,15.85 13.4,28.81 28.78,28.81" /><path
           id="path142"
           style="fill:#000000;fill-opacity:1;fill-rule:nonzero;stroke:none"
           d="m 3608.31,1469.25 -14.39,-46.16 c -13.9,8.68 -22.83,12.38 -31.27,12.38 -18.86,0 -31.27,-18.16 -42.68,-48.7 l 0,-71.62 -52.11,0 0,166.02 52.11,0 0,-47.67 0.99,0 c 15.39,34.6 32.76,50.79 52.61,50.79 10.42,0 19.36,-3.93 34.74,-15.04" /><path
           id="path144"
           style="fill:#000000;fill-opacity:1;fill-rule:nonzero;stroke:none"
           d="m 3482.25,1700.06 0,-53.79 c -34.24,-17.59 -60.05,-24.3 -96.28,-24.3 -95.78,0 -142.93,61.9 -142.93,125.3 0,65.48 53.6,126.68 147.4,126.68 34.24,0 65.01,-7.29 88.83,-21.63 l 0,-54.73 c -26.8,15.16 -54.09,25.11 -84.36,25.11 -52.12,0 -89.34,-30.89 -89.34,-74.51 0,-43.85 36.73,-75.2 87.84,-75.2 31.77,0 53.61,10.18 88.84,27.07" /><path
           id="path146"
           style="fill:#000000;fill-opacity:1;fill-rule:nonzero;stroke:none"
           d="m 3326.42,1417.07 71.96,0 c -1.99,22.68 -15.88,36.33 -36.23,36.33 -20.35,0 -33.75,-13.42 -35.73,-36.33 z m 32.26,67.22 c 48.14,0 88.34,-34.13 85.86,-94.63 l -119.11,0 c 1.48,-29.51 21.83,-46.86 54.59,-46.86 20.84,0 37.22,6.13 61.53,23.83 l 0,-32.85 c -29.77,-21.87 -61.04,-21.87 -73.94,-21.87 -58.56,0 -96.28,33.78 -96.28,85.73 0,50.67 36.23,86.65 87.35,86.65" /><path
           id="path148"
           style="fill:#000000;fill-opacity:1;fill-rule:nonzero;stroke:none"
           d="m 3248.5,1420.89 0,-105.74 -52.11,0 0,94.64 c 0,24.87 -10.92,36.44 -26.8,36.44 -12.41,0 -22.83,-7.64 -35.24,-25.34 l 0,-105.74 -52.11,0 0,245.5 52.11,0 0,-104.01 1,0 c 14.88,19.09 31.76,27.65 52.6,27.65 30.28,0 60.55,-18.39 60.55,-63.4" /><path
           id="path150"
           style="fill:#000000;fill-opacity:1;fill-rule:nonzero;stroke:none"
           d="m 3074.8,1625.09 52.1133,0 0,245.504 -52.1133,0 0,-245.504 z" /><path
           id="path152"
           style="fill:#000000;fill-opacity:1;fill-rule:nonzero;stroke:none"
           d="m 2983.48,1665.47 0,39.92 c -31.27,-11.23 -45.66,-18.4 -45.66,-34.83 0,-9.72 7.45,-17.7 16.88,-17.7 9.42,0 19.85,4.63 28.78,12.61 z m 80.4,0.69 0,-29.15 c -14.39,-8.56 -34.74,-15.04 -49.13,-15.04 -16.87,0 -25.31,5.32 -28.79,18.63 -20.35,-13.65 -36.72,-18.63 -55.08,-18.63 -26.31,0 -46.16,19.78 -46.16,40.61 0,39.68 29.28,47.55 98.76,69.18 0.99,15.51 -6.45,27.65 -28.78,27.65 -21.34,0 -44.67,-10.75 -61.54,-27.65 l 0,42.46 c 21.83,13.31 45.66,20.14 71.96,20.14 42.18,0 70.47,-14 70.47,-50.45 l 0,-75.55 c 0,-8.33 2.98,-11.57 8.44,-11.57 3.47,0 7.44,0.7 19.85,9.37" /><path
           id="path154"
           style="fill:#000000;fill-opacity:1;fill-rule:nonzero;stroke:none"
           d="m 3006.31,1397.18 c 0,31.7 -14.39,50.09 -39.2,50.09 -11.42,0 -19.36,-3.24 -32.27,-13.3 l 0,-76.36 c 10.43,-7.64 19.86,-10.76 30.28,-10.76 25.31,0 41.19,19.32 41.19,50.33 z m 53.1,2.89 c 0,-53.22 -32.75,-88.16 -81.88,-88.16 -14.89,0 -30.77,4.28 -42.69,11.45 l 0,-91.05 -52.11,0 0,248.86 52.11,0 0,-14.46 c 14.89,12.26 29.28,17.58 47.15,17.58 43.18,0 77.42,-36.67 77.42,-84.22" /><path
           id="path156"
           style="fill:#000000;fill-opacity:1;fill-rule:nonzero;stroke:none"
           d="m 2862.88,1730.61 0,-105.52 -52.11,0 0,101.23 c 0,23.38 -10.91,33.09 -25.81,33.09 -12.9,0 -22.82,-6.82 -36.22,-27.41 l 0,-106.91 -52.12,0 0,166.02 52.12,0 0,-23.83 c 16.37,19.09 32.75,27.08 54.09,27.08 25.81,0 60.05,-14.7 60.05,-63.75" /><path
           id="path158"
           style="fill:#000000;fill-opacity:1;fill-rule:nonzero;stroke:none"
           d="m 2855.93,1472.14 0,-37.13 c -22.82,14 -45.16,18.39 -55.58,18.39 -6.95,0 -18.86,-1.5 -18.86,-12.95 0,-18.4 82.39,-19.09 82.39,-74.51 0,-34.59 -24.32,-54.03 -67.5,-54.03 -26.8,0 -52.11,8.21 -59.06,12.26 l 0,36.68 c 16.88,-7.17 33.75,-14 53.6,-14 15.38,0 24.81,4.63 24.81,12.15 0,24.06 -82.38,19.78 -82.38,74.27 0,30.55 27.79,51.02 68.99,51.02 20.84,0 36.23,-3.58 53.59,-12.15" /><path
           id="path160"
           style="fill:#000000;fill-opacity:1;fill-rule:nonzero;stroke:none"
           d="m 2662.88,1399.38 c 0,32.39 -11.42,54.02 -37.22,54.02 -22.83,0 -38.22,-17.7 -38.22,-55.07 0,-42.92 18.36,-55.53 38.22,-55.53 24.32,0 37.22,20.25 37.22,56.58 z m -37.22,84.91 c 40.2,0 92.8,-22.67 92.8,-86.42 0,-65.83 -56.08,-85.96 -92.8,-85.96 -54.59,0 -94.3,34.25 -94.3,86.42 0,56.46 45.16,85.96 94.3,85.96" /><path
           id="path162"
           style="fill:#000000;fill-opacity:1;fill-rule:nonzero;stroke:none"
           d="m 2617.71,1709.32 c 0,32.51 -11.41,54.14 -37.71,54.14 -22.83,0 -38.21,-17.7 -38.21,-55.18 0,-42.81 18.36,-55.42 38.21,-55.42 24.81,0 37.71,20.13 37.71,56.46 z m -37.71,85.04 c 40.7,0 93.3,-22.8 93.3,-86.43 0,-65.95 -56.58,-85.96 -93.3,-85.96 -54.1,0 -93.8,34.13 -93.8,86.31 0,56.57 44.67,86.08 93.8,86.08" /><path
           id="path164"
           style="fill:#000000;fill-opacity:1;fill-rule:nonzero;stroke:none"
           d="m 2507.54,1421.7 0,-106.55 -52.11,0 0,97.18 c 0,23.83 -11.41,37.14 -30.77,37.14 -14.89,0 -28.78,-9.72 -40.7,-28.11 l 0,-106.21 -52.1,0 0,98.23 c 0,27.07 -16.38,36.09 -31.77,36.09 -13.89,0 -27.29,-7.98 -40.2,-23.14 l 0,-111.18 -52.11,0 0,166.02 52.11,0 0,-21.4 c 9.43,8.33 18.36,14.46 27.79,18.74 9.93,4.05 19.36,5.78 29.78,5.78 28.79,0 48.64,-11.45 60.05,-35.28 21.34,24.87 40.7,35.28 65.51,35.28 37.72,0 64.52,-24.75 64.52,-62.59" /><path
           id="path166"
           style="fill:#000000;fill-opacity:1;fill-rule:nonzero;stroke:none"
           d="m 2409.77,1625.09 52.1133,0 0,166.02 -52.1133,0 0,-166.02 z" /><path
           id="path168"
           style="fill:#000000;fill-opacity:1;fill-rule:nonzero;stroke:none"
           d="m 2435.58,1873.95 c 15.88,0 28.78,-13.07 28.78,-28.81 0,-15.96 -12.9,-28.8 -28.78,-28.8 -15.88,0 -28.79,12.84 -28.79,28.8 0,15.74 12.91,28.81 28.79,28.81" /><path
           id="path170"
           style="fill:#000000;fill-opacity:1;fill-rule:nonzero;stroke:none"
           d="m 2393.39,1670.1 0,-37.83 c -17.86,-7.52 -31.76,-10.3 -48.14,-10.3 -34.24,0 -64.52,15.73 -64.52,62.24 l 0,71.15 -23.32,0 0,10.19 69.48,77.74 5.96,0 0,-52.18 60.54,0 0,-35.75 -60.54,0 0,-68.37 c 0,-16.2 9.43,-26.61 25.8,-26.61 10.92,0 20.85,2.55 34.74,9.72" /><path
           id="path172"
           style="fill:#000000;fill-opacity:1;fill-rule:nonzero;stroke:none"
           d="m 2183.96,1665.47 0,39.92 c -30.77,-11.23 -45.66,-18.4 -45.66,-34.83 0,-9.72 7.45,-17.7 16.88,-17.7 9.92,0 20.34,4.63 28.78,12.61 z m 80.9,0.69 0,-29.15 c -14.4,-8.56 -35.24,-15.04 -49.14,-15.04 -17.37,0 -25.31,5.32 -29.28,18.63 -19.85,-13.65 -36.73,-18.63 -54.59,-18.63 -26.8,0 -46.15,19.78 -46.15,40.61 0,39.68 28.78,47.55 98.26,69.18 0.99,15.51 -5.96,27.65 -28.78,27.65 -20.85,0 -44.67,-10.75 -61.05,-27.65 l 0,42.46 c 21.34,13.31 45.66,20.14 71.96,20.14 41.69,0 69.98,-14 69.98,-50.45 l 0,-75.55 c 0,-8.33 3.47,-11.57 8.93,-11.57 3.48,0 7.45,0.7 19.86,9.37" /><path
           id="path174"
           style="fill:#000000;fill-opacity:1;fill-rule:nonzero;stroke:none"
           d="m 2191.9,1360.15 0,-37.83 c -18.36,-7.63 -32.26,-10.41 -48.63,-10.41 -34.25,0 -64.52,15.85 -64.52,62.36 l 0,71.15 -23.33,0 0,10.06 69.48,77.87 6.45,0 0,-52.18 60.55,0 0,-35.75 -60.55,0 0,-68.37 c 0,-16.2 8.94,-26.61 25.31,-26.61 10.92,0 20.85,2.43 35.24,9.71" /><path
           id="path176"
           style="fill:#000000;fill-opacity:1;fill-rule:nonzero;stroke:none"
           d="m 1957.65,1406.2 -39.7,95.8 -35.74,-95.8 75.44,0 z m -4.96,154.45 109.18,-245.5 -66,0 -20.35,48.94 -109.68,0 -18.36,-48.94 -65.02,0 99.26,245.5" /><path
           id="path178"
           style="fill:#000000;fill-opacity:1;fill-rule:nonzero;stroke:none"
           d="m 2057.9,1870.6 0,-245.51 -51.61,0 -135.49,157.35 0,-157.35 -61.54,0 0,245.51 56.08,0 131.02,-150.06 0,150.06" /></g></g></g></svg>